static pose
version=1
nRows=1
nColumns=231
inDegrees=no
endheader
time	/jointset/ground_pelvis/pelvis_tilt/value	/jointset/ground_pelvis/pelvis_tilt/speed	/jointset/ground_pelvis/pelvis_list/value	/jointset/ground_pelvis/pelvis_list/speed	/jointset/ground_pelvis/pelvis_rotation/value	/jointset/ground_pelvis/pelvis_rotation/speed	/jointset/ground_pelvis/pelvis_tx/value	/jointset/ground_pelvis/pelvis_tx/speed	/jointset/ground_pelvis/pelvis_ty/value	/jointset/ground_pelvis/pelvis_ty/speed	/jointset/ground_pelvis/pelvis_tz/value	/jointset/ground_pelvis/pelvis_tz/speed	/jointset/hip_r/hip_flexion_r/value	/jointset/hip_r/hip_flexion_r/speed	/jointset/hip_r/hip_adduction_r/value	/jointset/hip_r/hip_adduction_r/speed	/jointset/hip_r/hip_rotation_r/value	/jointset/hip_r/hip_rotation_r/speed	/jointset/walker_knee_r/knee_angle_r/value	/jointset/walker_knee_r/knee_angle_r/speed	/jointset/patellofemoral_r/knee_angle_r_beta/value	/jointset/patellofemoral_r/knee_angle_r_beta/speed	/jointset/ankle_r/ankle_angle_r/value	/jointset/ankle_r/ankle_angle_r/speed	/jointset/subtalar_r/subtalar_angle_r/value	/jointset/subtalar_r/subtalar_angle_r/speed	/jointset/mtp_r/mtp_angle_r/value	/jointset/mtp_r/mtp_angle_r/speed	/jointset/hip_l/hip_flexion_l/value	/jointset/hip_l/hip_flexion_l/speed	/jointset/hip_l/hip_adduction_l/value	/jointset/hip_l/hip_adduction_l/speed	/jointset/hip_l/hip_rotation_l/value	/jointset/hip_l/hip_rotation_l/speed	/jointset/walker_knee_l/knee_angle_l/value	/jointset/walker_knee_l/knee_angle_l/speed	/jointset/patellofemoral_l/knee_angle_l_beta/value	/jointset/patellofemoral_l/knee_angle_l_beta/speed	/jointset/ankle_l/ankle_angle_l/value	/jointset/ankle_l/ankle_angle_l/speed	/jointset/subtalar_l/subtalar_angle_l/value	/jointset/subtalar_l/subtalar_angle_l/speed	/jointset/mtp_l/mtp_angle_l/value	/jointset/mtp_l/mtp_angle_l/speed	/jointset/back/lumbar_extension/value	/jointset/back/lumbar_extension/speed	/jointset/back/lumbar_bending/value	/jointset/back/lumbar_bending/speed	/jointset/back/lumbar_rotation/value	/jointset/back/lumbar_rotation/speed	/jointset/acromial_r/arm_flex_r/value	/jointset/acromial_r/arm_flex_r/speed	/jointset/acromial_r/arm_add_r/value	/jointset/acromial_r/arm_add_r/speed	/jointset/acromial_r/arm_rot_r/value	/jointset/acromial_r/arm_rot_r/speed	/jointset/elbow_r/elbow_flex_r/value	/jointset/elbow_r/elbow_flex_r/speed	/jointset/radioulnar_r/pro_sup_r/value	/jointset/radioulnar_r/pro_sup_r/speed	/jointset/acromial_l/arm_flex_l/value	/jointset/acromial_l/arm_flex_l/speed	/jointset/acromial_l/arm_add_l/value	/jointset/acromial_l/arm_add_l/speed	/jointset/acromial_l/arm_rot_l/value	/jointset/acromial_l/arm_rot_l/speed	/jointset/elbow_l/elbow_flex_l/value	/jointset/elbow_l/elbow_flex_l/speed	/jointset/radioulnar_l/pro_sup_l/value	/jointset/radioulnar_l/pro_sup_l/speed	/forceset/addbrev_r/activation	/forceset/addbrev_r/fiber_length	/forceset/addlong_r/activation	/forceset/addlong_r/fiber_length	/forceset/addmagDist_r/activation	/forceset/addmagDist_r/fiber_length	/forceset/addmagIsch_r/activation	/forceset/addmagIsch_r/fiber_length	/forceset/addmagMid_r/activation	/forceset/addmagMid_r/fiber_length	/forceset/addmagProx_r/activation	/forceset/addmagProx_r/fiber_length	/forceset/bflh_r/activation	/forceset/bflh_r/fiber_length	/forceset/bfsh_r/activation	/forceset/bfsh_r/fiber_length	/forceset/edl_r/activation	/forceset/edl_r/fiber_length	/forceset/ehl_r/activation	/forceset/ehl_r/fiber_length	/forceset/fdl_r/activation	/forceset/fdl_r/fiber_length	/forceset/fhl_r/activation	/forceset/fhl_r/fiber_length	/forceset/gaslat_r/activation	/forceset/gaslat_r/fiber_length	/forceset/gasmed_r/activation	/forceset/gasmed_r/fiber_length	/forceset/glmax1_r/activation	/forceset/glmax1_r/fiber_length	/forceset/glmax2_r/activation	/forceset/glmax2_r/fiber_length	/forceset/glmax3_r/activation	/forceset/glmax3_r/fiber_length	/forceset/glmed1_r/activation	/forceset/glmed1_r/fiber_length	/forceset/glmed2_r/activation	/forceset/glmed2_r/fiber_length	/forceset/glmed3_r/activation	/forceset/glmed3_r/fiber_length	/forceset/glmin1_r/activation	/forceset/glmin1_r/fiber_length	/forceset/glmin2_r/activation	/forceset/glmin2_r/fiber_length	/forceset/glmin3_r/activation	/forceset/glmin3_r/fiber_length	/forceset/grac_r/activation	/forceset/grac_r/fiber_length	/forceset/iliacus_r/activation	/forceset/iliacus_r/fiber_length	/forceset/perbrev_r/activation	/forceset/perbrev_r/fiber_length	/forceset/perlong_r/activation	/forceset/perlong_r/fiber_length	/forceset/piri_r/activation	/forceset/piri_r/fiber_length	/forceset/psoas_r/activation	/forceset/psoas_r/fiber_length	/forceset/recfem_r/activation	/forceset/recfem_r/fiber_length	/forceset/sart_r/activation	/forceset/sart_r/fiber_length	/forceset/semimem_r/activation	/forceset/semimem_r/fiber_length	/forceset/semiten_r/activation	/forceset/semiten_r/fiber_length	/forceset/soleus_r/activation	/forceset/soleus_r/fiber_length	/forceset/tfl_r/activation	/forceset/tfl_r/fiber_length	/forceset/tibant_r/activation	/forceset/tibant_r/fiber_length	/forceset/tibpost_r/activation	/forceset/tibpost_r/fiber_length	/forceset/vasint_r/activation	/forceset/vasint_r/fiber_length	/forceset/vaslat_r/activation	/forceset/vaslat_r/fiber_length	/forceset/vasmed_r/activation	/forceset/vasmed_r/fiber_length	/forceset/addbrev_l/activation	/forceset/addbrev_l/fiber_length	/forceset/addlong_l/activation	/forceset/addlong_l/fiber_length	/forceset/addmagDist_l/activation	/forceset/addmagDist_l/fiber_length	/forceset/addmagIsch_l/activation	/forceset/addmagIsch_l/fiber_length	/forceset/addmagMid_l/activation	/forceset/addmagMid_l/fiber_length	/forceset/addmagProx_l/activation	/forceset/addmagProx_l/fiber_length	/forceset/bflh_l/activation	/forceset/bflh_l/fiber_length	/forceset/bfsh_l/activation	/forceset/bfsh_l/fiber_length	/forceset/edl_l/activation	/forceset/edl_l/fiber_length	/forceset/ehl_l/activation	/forceset/ehl_l/fiber_length	/forceset/fdl_l/activation	/forceset/fdl_l/fiber_length	/forceset/fhl_l/activation	/forceset/fhl_l/fiber_length	/forceset/gaslat_l/activation	/forceset/gaslat_l/fiber_length	/forceset/gasmed_l/activation	/forceset/gasmed_l/fiber_length	/forceset/glmax1_l/activation	/forceset/glmax1_l/fiber_length	/forceset/glmax2_l/activation	/forceset/glmax2_l/fiber_length	/forceset/glmax3_l/activation	/forceset/glmax3_l/fiber_length	/forceset/glmed1_l/activation	/forceset/glmed1_l/fiber_length	/forceset/glmed2_l/activation	/forceset/glmed2_l/fiber_length	/forceset/glmed3_l/activation	/forceset/glmed3_l/fiber_length	/forceset/glmin1_l/activation	/forceset/glmin1_l/fiber_length	/forceset/glmin2_l/activation	/forceset/glmin2_l/fiber_length	/forceset/glmin3_l/activation	/forceset/glmin3_l/fiber_length	/forceset/grac_l/activation	/forceset/grac_l/fiber_length	/forceset/iliacus_l/activation	/forceset/iliacus_l/fiber_length	/forceset/perbrev_l/activation	/forceset/perbrev_l/fiber_length	/forceset/perlong_l/activation	/forceset/perlong_l/fiber_length	/forceset/piri_l/activation	/forceset/piri_l/fiber_length	/forceset/psoas_l/activation	/forceset/psoas_l/fiber_length	/forceset/recfem_l/activation	/forceset/recfem_l/fiber_length	/forceset/sart_l/activation	/forceset/sart_l/fiber_length	/forceset/semimem_l/activation	/forceset/semimem_l/fiber_length	/forceset/semiten_l/activation	/forceset/semiten_l/fiber_length	/forceset/soleus_l/activation	/forceset/soleus_l/fiber_length	/forceset/tfl_l/activation	/forceset/tfl_l/fiber_length	/forceset/tibant_l/activation	/forceset/tibant_l/fiber_length	/forceset/tibpost_l/activation	/forceset/tibpost_l/fiber_length	/forceset/vasint_l/activation	/forceset/vasint_l/fiber_length	/forceset/vaslat_l/activation	/forceset/vaslat_l/fiber_length	/forceset/vasmed_l/activation	/forceset/vasmed_l/fiber_length
      0.00000000	     -0.02803578	      0.00000000	     -0.00803758	      0.00000000	     -0.02622158	      0.00000000	     -0.18587981	      0.00000000	      1.06022706	      0.00000000	     -0.60984470	      0.00000000	      0.00882711	      0.00000000	      0.00134074	      0.00000000	      0.04884584	      0.00000000	      0.00637910	      0.00000000	      0.00637910	      0.00000000	      0.08710268	      0.00000000	      0.06307683	      0.00000000	     -0.11767185	      0.00000000	      0.00055307	      0.00000000	      0.00733315	      0.00000000	      0.01864308	      0.00000000	      0.00802284	      0.00000000	      0.00802284	      0.00000000	      0.08712512	      0.00000000	      0.03241163	      0.00000000	     -0.11767185	      0.00000000	     -0.00391934	      0.00000000	     -0.00047739	      0.00000000	     -0.00020473	      0.00000000	     -0.12354171	      0.00000000	     -0.15264517	      0.00000000	      0.16927235	      0.00000000	      0.56390562	      0.00000000	      1.33883535	      0.00000000	     -0.23423791	      0.00000000	     -0.18767396	      0.00000000	      0.16250819	      0.00000000	      0.82607463	      0.00000000	      1.31644583	      0.00000000	      0.01000000	      0.10000000	      0.01000000	      0.10000000	      0.01000000	      0.10000000	      0.01000000	      0.10000000	      0.01000000	      0.10000000	      0.01000000	      0.10000000	      0.01000000	      0.10000000	      0.01000000	      0.10000000	      0.01000000	      0.10000000	      0.01000000	      0.10000000	      0.01000000	      0.10000000	      0.01000000	      0.10000000	      0.01000000	      0.10000000	      0.01000000	      0.10000000	      0.01000000	      0.10000000	      0.01000000	      0.10000000	      0.01000000	      0.10000000	      0.01000000	      0.10000000	      0.01000000	      0.10000000	      0.01000000	      0.10000000	      0.01000000	      0.10000000	      0.01000000	      0.10000000	      0.01000000	      0.10000000	      0.01000000	      0.10000000	      0.01000000	      0.10000000	      0.01000000	      0.10000000	      0.01000000	      0.10000000	      0.01000000	      0.10000000	      0.01000000	      0.10000000	      0.01000000	      0.10000000	      0.01000000	      0.10972997	      0.01000000	      0.10000000	      0.01000000	      0.10000000	      0.01000000	      0.10000000	      0.01000000	      0.10000000	      0.01000000	      0.10000000	      0.01000000	      0.10000000	      0.01000000	      0.10000000	      0.01000000	      0.10000000	      0.01000000	      0.10000000	      0.01000000	      0.10000000	      0.01000000	      0.10000000	      0.01000000	      0.10000000	      0.01000000	      0.10000000	      0.01000000	      0.10000000	      0.01000000	      0.10000000	      0.01000000	      0.10000000	      0.01000000	      0.10000000	      0.01000000	      0.10000000	      0.01000000	      0.10000000	      0.01000000	      0.10000000	      0.01000000	      0.10000000	      0.01000000	      0.10000000	      0.01000000	      0.10000000	      0.01000000	      0.10000000	      0.01000000	      0.10000000	      0.01000000	      0.10000000	      0.01000000	      0.10000000	      0.01000000	      0.10000000	      0.01000000	      0.10000000	      0.01000000	      0.10000000	      0.01000000	      0.10000000	      0.01000000	      0.10000000	      0.01000000	      0.10000000	      0.01000000	      0.10000000	      0.01000000	      0.10000000	      0.01000000	      0.10000000	      0.01000000	      0.10000000	      0.01000000	      0.10000000	      0.01000000	      0.10000000	      0.01000000	      0.10985309	      0.01000000	      0.10000000	      0.01000000	      0.10000000	      0.01000000	      0.10000000	      0.01000000	      0.10000000	      0.01000000	      0.10000000	      0.01000000	      0.10000000	      0.01000000	      0.10000000	      0.01000000	      0.10000000	      0.01000000	      0.10000000
